<?xml version="1.0" standalone="no"?>
<svg width="800" height="600" viewBox="-2 0 20 18" xmlns="http://www.w3.org/2000/svg" version="1.1">
<polygon points=" 0 0 10 7 12 3 20 8 13 17 10 12 12 14 14 9 8 10 6 14 10 15 7 18 0 16 1 13 3 15 5 8 -2 9 5 5" fill="none" stroke="black" stroke-width="0.2"/>
<line x1="5" y1="5" x2="10" y2="7" stroke="green" stroke-width="0.2"/>
<line x1="10" y1="7" x2="20" y2="8" stroke="green" stroke-width="0.2"/>
<line x1="13" y1="17" x2="12" y2="14" stroke="green" stroke-width="0.2"/>
<line x1="13" y1="17" x2="14" y2="9" stroke="green" stroke-width="0.2"/>
<line x1="6" y1="14" x2="7" y2="18" stroke="green" stroke-width="0.2"/>
<line x1="0" y1="16" x2="3" y2="15" stroke="green" stroke-width="0.2"/>
<line x1="5" y1="8" x2="5" y2="5" stroke="green" stroke-width="0.2"/>
<line x1="5" y1="8" x2="10" y2="7" stroke="green" stroke-width="0.2"/>
<line x1="5" y1="8" x2="20" y2="8" stroke="green" stroke-width="0.2"/>
<line x1="20" y1="8" x2="14" y2="9" stroke="green" stroke-width="0.2"/>
<line x1="7" y1="18" x2="3" y2="15" stroke="green" stroke-width="0.2"/>
<line x1="5" y1="8" x2="14" y2="9" stroke="green" stroke-width="0.2"/>
<line x1="5" y1="8" x2="8" y2="10" stroke="green" stroke-width="0.2"/>
<line x1="5" y1="8" x2="6" y2="14" stroke="green" stroke-width="0.2"/>
<line x1="6" y1="14" x2="3" y2="15" stroke="green" stroke-width="0.2"/>
</svg>
